<?xml version="1.0" encoding="UTF-8" standalone="no"?>
<!-- Created with Inkscape (http://www.inkscape.org/) -->

<svg
   width="155.13699mm"
   height="32.071808mm"
   viewBox="0 0 155.13699 32.071808"
   version="1.1"
   id="svg959"
   inkscape:version="1.1.1 (3bf5ae0d25, 2021-09-20)"
   sodipodi:docname="13-incendies-title.svg"
   xmlns:inkscape="http://www.inkscape.org/namespaces/inkscape"
   xmlns:sodipodi="http://sodipodi.sourceforge.net/DTD/sodipodi-0.dtd"
   xmlns:xlink="http://www.w3.org/1999/xlink"
   xmlns="http://www.w3.org/2000/svg"
   xmlns:svg="http://www.w3.org/2000/svg">
  <sodipodi:namedview
     id="namedview961"
     pagecolor="#ffffff"
     bordercolor="#cccccc"
     borderopacity="1"
     inkscape:pageshadow="0"
     inkscape:pageopacity="1"
     inkscape:pagecheckerboard="0"
     inkscape:document-units="mm"
     showgrid="false"
     fit-margin-top="0"
     fit-margin-left="0"
     fit-margin-right="0"
     fit-margin-bottom="0"
     inkscape:zoom="0.70911897"
     inkscape:cx="311.65433"
     inkscape:cy="351.84505"
     inkscape:window-width="2880"
     inkscape:window-height="1541"
     inkscape:window-x="2869"
     inkscape:window-y="3"
     inkscape:window-maximized="1"
     inkscape:current-layer="layer1" />
  <defs
     id="defs956">
    <linearGradient
       inkscape:collect="always"
       xlink:href="#linearGradient34283"
       id="linearGradient46530"
       gradientUnits="userSpaceOnUse"
       x1="232.86137"
       y1="132.70915"
       x2="344.29306"
       y2="132.70915"
       gradientTransform="matrix(1.3885752,0,0,1.613042,-300.91905,-142.74583)" />
    <linearGradient
       inkscape:collect="always"
       id="linearGradient34283">
      <stop
         style="stop-color:#ffff00;stop-opacity:1;"
         offset="0"
         id="stop34279" />
      <stop
         style="stop-color:#ff0404;stop-opacity:1;"
         offset="0.69771862"
         id="stop35736" />
      <stop
         style="stop-color:#a20000;stop-opacity:1;"
         offset="1"
         id="stop34281" />
    </linearGradient>
  </defs>
  <g
     inkscape:label="Calque 1"
     inkscape:groupmode="layer"
     id="layer1"
     transform="translate(-22.426476,-55.229171)">
    <path
       style="display:inline;fill:url(#linearGradient46530);fill-opacity:1;stroke-width:0.395977"
       d="M 22.426521,71.296564 V 55.29217 h 3.857637 3.857626 l -0.02584,13.763781 c -0.02595,13.81372 -0.438321,19.638205 -0.778123,10.989688 -0.119414,-3.040342 -0.375938,-4.927214 -0.79768,-5.868279 -0.341887,-0.762872 -0.658698,-1.386619 -0.704033,-1.386087 -0.0453,4.34e-4 -0.08901,2.065114 -0.09719,4.587943 -0.0085,2.522814 -0.149913,5.547218 -0.315067,6.720868 l -0.300285,2.133924 -0.734797,-2.133924 c -0.404153,-1.17365 -1.022992,-3.766373 -1.375226,-5.761576 l -0.640409,-3.627668 -0.64967,2.524605 c -0.408267,1.586556 -0.649679,3.925579 -0.649679,6.295058 0,2.073759 -0.145628,3.770468 -0.323649,3.770468 -0.180861,0 -0.32366,-7.06117 -0.32366,-16.004407 z m 10.654422,-0.01451 V 55.263216 l 3.936332,0.12114 3.936322,0.121139 1.559434,4.267837 1.559448,4.267849 0.0151,-4.374536 0.0151,-4.374539 h 3.673937 3.673947 v 16.004393 c 0,13.275448 -0.08592,16.004408 -0.503903,16.004408 -0.383978,0 -0.548833,-1.091869 -0.692686,-4.587926 -0.270497,-6.573049 -1.417466,-9.751258 -1.848257,-5.121409 -0.313621,3.370581 -1.698035,8.21153 -2.186166,7.644496 -0.223601,-0.259763 -0.49999,-3.13122 -0.631452,-6.56058 -0.213211,-5.561138 -0.277028,-5.985789 -0.724005,-4.818285 -0.269594,0.704189 -0.61532,3.067312 -0.768286,5.25137 -0.152955,2.184044 -0.360667,4.066931 -0.461609,4.184183 -0.100925,0.117275 -0.380331,-0.805488 -0.620882,-2.050483 -0.658581,-3.408422 -0.856264,-3.73816 -1.101335,-1.836867 l -0.220038,1.707131 -0.868633,-2.680504 c -0.477753,-1.474289 -1.038071,-2.802146 -1.245134,-2.950803 -0.215061,-0.154368 -0.291438,-0.01131 -0.178116,0.33319 0.238562,0.725707 -0.278198,8.452275 -0.589479,8.813855 -0.52028,0.60439 -0.723132,-0.649089 -0.966012,-5.969256 -0.183614,-4.021926 -0.450295,-6.148463 -0.923294,-7.36252 l -0.6651,-1.707131 -0.269052,3.841057 c -0.147967,2.112584 -0.445052,4.705292 -0.660186,5.761576 -0.215135,1.0563 -0.395188,3.312914 -0.400132,5.014721 -0.0085,3.013163 -0.03308,3.094185 -0.927452,3.094185 H 33.080869 V 71.282062 Z m 33.432833,13.068899 c 0,-1.622479 -0.247953,-4.455256 -0.551025,-6.295059 -0.30306,-1.83982 -0.551055,-3.393147 -0.551087,-3.451827 -4.2e-5,-0.05871 1.510582,-0.106625 3.356913,-0.106625 h 3.356978 l -0.182476,5.146748 c -0.100388,2.830726 -0.345366,5.33599 -0.544443,5.567252 -0.393091,0.456636 -1.696365,-3.642603 -2.117255,-6.659555 -0.130953,-0.938919 -0.330274,-2.187269 -0.442851,-2.774094 -0.398823,-2.07913 -1.295329,2.078646 -1.495373,6.935241 -0.208904,5.071742 -0.829381,6.297154 -0.829381,1.63798 z m 20.206669,0.854039 c 0,-1.152727 -0.328519,-3.313332 -0.730055,-4.801315 -0.401514,-1.487983 -0.732181,-2.849454 -0.734777,-3.025502 -0.0032,-0.176064 0.656561,-0.320092 1.464832,-0.320092 h 1.469576 v 5.121407 c 0,4.836884 -0.04084,5.121408 -0.734788,5.121408 -0.635037,0 -0.734788,-0.284524 -0.734788,-2.095906 z m 4.041326,-13.92294 V 55.263216 l 3.936332,0.12114 3.936321,0.121139 1.559446,4.267837 1.55944,4.267849 0.0151,-4.374536 0.0151,-4.374539 h 3.67396 3.67393 v 16.004393 c 0,13.275448 -0.086,16.004408 -0.5039,16.004408 -0.38398,0 -0.54883,-1.091869 -0.69269,-4.587926 -0.27047,-6.573049 -1.41746,-9.751258 -1.84825,-5.121409 -0.3136,3.370581 -1.69803,8.21153 -2.18617,7.644496 -0.2236,-0.259763 -0.49998,-3.13122 -0.63146,-6.56058 -0.21319,-5.561138 -0.277,-5.985789 -0.72398,-4.818285 -0.26961,0.704189 -0.61534,3.067312 -0.76831,5.25137 -0.15295,2.184044 -0.36066,4.066931 -0.4616,4.184183 -0.10095,0.117275 -0.38033,-0.805488 -0.62088,-2.050483 -0.65858,-3.408422 -0.856256,-3.73816 -1.101336,-1.836867 l -0.22003,1.707131 -0.86864,-2.680504 c -0.47776,-1.474289 -1.03806,-2.802146 -1.24513,-2.950803 -0.21507,-0.154368 -0.29142,-0.01131 -0.1781,0.33319 0.23854,0.725707 -0.27822,8.452275 -0.58949,8.813855 -0.52028,0.60439 -0.72313,-0.649089 -0.96603,-5.969256 -0.1836,-4.021926 -0.450279,-6.148463 -0.92328,-7.36252 l -0.665105,-1.707131 -0.269031,3.841057 c -0.14799,2.112584 -0.445073,4.705292 -0.660209,5.761576 -0.215123,1.0563 -0.395186,3.312914 -0.40011,5.014721 -0.0085,3.013163 -0.03308,3.094185 -0.927473,3.094185 H 90.761697 V 71.282062 Z m 29.644099,11.857697 c -0.12191,-2.288631 -0.33056,-4.593265 -0.46367,-5.121407 -0.21942,-0.870641 -0.11802,-0.96026 1.08671,-0.96026 h 1.32874 v -7.255334 -7.255333 h -1.28587 -1.28589 l -0.0673,6.93524 c -0.0532,5.493038 -0.11273,6.225229 -0.28558,3.520981 l -0.21821,-3.414277 -0.6813,1.70713 c -0.48992,1.227607 -0.76305,3.325577 -0.97231,7.468724 -0.33569,6.645861 -0.26015,5.974981 -0.67268,5.974981 -0.408,0 -0.75244,-2.734606 -0.82811,-6.575049 -0.0488,-2.474923 -0.13178,-2.830228 -0.51817,-2.216498 -0.25303,0.401987 -0.72405,2.384173 -1.04674,4.404878 -0.32266,2.020707 -0.6696,3.770325 -0.77094,3.888078 -0.10129,0.117753 -0.18429,-1.290353 -0.18429,-3.129076 0,-3.621328 -0.31271,-3.852316 -0.96669,-0.714029 -0.33886,1.626156 -0.42365,-0.513237 -0.45923,-11.587463 l -0.0436,-13.581864 7.45714,0.138237 c 10.78781,0.199857 10.54514,-0.107912 10.54514,13.377202 0,6.465782 -0.15302,9.566805 -0.57961,11.745557 -0.31879,1.628189 -0.71343,3.056409 -0.87697,3.173822 -0.16353,0.117434 -0.36517,-1.75299 -0.44807,-4.15644 -0.10358,-3.002096 -0.34195,-4.770683 -0.76161,-5.650274 -0.6061,-1.270383 -0.61097,-1.250124 -0.62558,2.604804 -0.0176,4.679337 -0.3862,9.131753 -0.75576,9.131753 -0.40769,0 -1.80877,-5.424887 -2.1494,-8.322281 l -0.30102,-2.560704 -0.66534,1.707131 c -0.45712,1.172859 -0.71987,3.143013 -0.83952,6.295073 -0.15118,3.982617 -0.25783,4.587928 -0.80833,4.587928 -0.54213,0 -0.66635,-0.604036 -0.85582,-4.16115 z m 12.6062,-11.84326 v -16.0044 h 3.85763 3.85764 l -0.0259,13.763782 c -0.0259,13.813718 -0.4383,19.638205 -0.7781,10.989687 -0.11942,-3.040342 -0.37595,-4.927213 -0.79769,-5.868279 -0.34188,-0.762872 -0.65869,-1.386618 -0.70402,-1.386086 -0.0453,4.35e-4 -0.089,2.065112 -0.0972,4.587942 -0.008,2.522813 -0.1499,5.547219 -0.31506,6.720868 l -0.30027,2.133925 -0.73481,-2.133925 c -0.40415,-1.173649 -1.023,-3.766373 -1.37522,-5.761576 l -0.64041,-3.627668 -0.64967,2.524605 c -0.40827,1.586557 -0.64967,3.92558 -0.64967,6.295057 0,2.073761 -0.14564,3.77047 -0.32365,3.77047 -0.18087,0 -0.32364,-7.061171 -0.32364,-16.004408 z m 22.04362,13.908502 c 0,-1.152727 -0.3285,-3.313332 -0.73004,-4.801315 -0.40153,-1.487983 -0.73218,-2.849455 -0.7348,-3.025519 -0.003,-0.176047 0.65658,-0.320075 1.46484,-0.320075 h 1.46958 v 5.121407 c 0,4.836884 -0.0409,5.121408 -0.73479,5.121408 -0.63503,0 -0.73479,-0.284524 -0.73479,-2.095906 z m 17.11099,0.495463 c 0.60622,-1.973316 0.65024,-3.939888 0.12358,-5.52041 -0.2202,-0.660798 -0.51518,-2.449776 -0.65553,-3.975536 l -0.25519,-2.774094 -0.58262,1.280352 c -0.32047,0.704191 -0.70008,2.217159 -0.8436,3.362144 -0.37126,2.961594 -0.62255,3.626956 -0.97507,2.581626 -0.38773,-1.149745 -0.39351,-3.169677 -0.009,-3.169677 0.56949,0 0.45092,-6.611244 -0.13469,-7.510064 -0.48256,-0.740645 -0.53024,-0.614746 -0.54089,1.428397 -0.007,1.322517 -0.17557,2.240612 -0.41164,2.240612 -0.21998,0 -1.91459,-0.84654 -3.76579,-1.881194 -4.38161,-2.448936 -4.83541,-3.257393 -4.83541,-8.614821 0,-6.856156 0.77601,-7.586476 8.26638,-7.779799 8.20916,-0.21189 9.51417,0.651814 9.83787,6.511078 l 0.17839,3.229052 h -4.08965 -4.08966 v -1.280353 c 0,-1.143969 -0.11983,-1.280352 -1.12545,-1.280352 -1.04843,0 -1.11758,0.09485 -1.01033,1.387054 0.10759,1.296789 0.37239,1.540875 4.06866,3.750936 5.60846,3.353385 5.44168,3.075651 5.58947,9.3078 0.11747,4.952201 -0.2541,6.525884 -0.74226,3.144093 -0.12581,-0.872011 -0.40564,-2.253806 -0.62168,-3.070635 l -0.39283,-1.48516 -0.87214,3.619069 c -0.47967,1.99051 -0.90161,4.627365 -0.93763,5.859714 -0.0583,1.993363 -0.15376,2.240611 -0.86519,2.240611 -0.76653,0 -0.77929,-0.06629 -0.30798,-1.600443 z M 54.695104,84.670036 c -0.375587,-0.765582 -0.489014,-3.81841 -0.489014,-13.160163 0,-11.494392 0.04148,-12.245488 0.753579,-13.657079 1.130239,-2.240403 2.617297,-2.648777 9.048131,-2.484811 4.78981,0.122107 5.508911,0.23744 6.429398,1.03104 1.279068,1.102789 1.885115,3.54192 1.925313,7.748831 l 0.02956,3.094184 h -4.041336 -4.041336 v -2.347314 c 0,-2.323604 -0.0111,-2.347316 -1.102175,-2.347316 h -1.102187 v 6.122801 c 0,4.601928 -0.137609,6.443248 -0.554001,7.412848 -0.304688,0.709512 -0.842016,2.995643 -1.194015,5.080274 L 59.71699,84.953576 59.525644,81.32591 c -0.203416,-3.856252 -0.386051,-3.83278 -1.087958,0.139851 -0.241678,1.367907 -0.505997,2.409787 -0.587351,2.315295 -0.08135,-0.09452 -0.294297,-2.077952 -0.473222,-4.407652 -0.178925,-2.329702 -0.543878,-4.811996 -0.811005,-5.516185 -0.440703,-1.161745 -0.508688,-0.695607 -0.733937,5.032416 -0.136503,3.472041 -0.338206,6.417294 -0.448156,6.545016 -0.109967,0.127751 -0.419965,-0.216325 -0.688922,-0.764583 z m 7.639578,-1.26356 c -0.126359,-0.733531 -0.22963,-2.365978 -0.22963,-3.627651 0,-2.009447 0.09114,-2.293972 0.734797,-2.293972 0.656944,0 0.734246,0.28259 0.729758,2.667408 -0.0085,4.227685 -0.736701,6.148061 -1.234925,3.254215 z m 96.798678,-4.107838 c -0.0342,-3.320156 0.008,-3.520963 0.74541,-3.520963 0.6982,0 0.75784,0.171032 0.55799,1.600427 -0.12302,0.880254 -0.45848,2.46468 -0.74541,3.520981 l -0.52167,1.92052 -0.0364,-3.520965 z m -76.016058,0.353627 c 0.07402,-1.516679 0.29065,-2.381882 0.628879,-2.511538 0.416753,-0.159691 0.469054,0.199775 0.272007,1.869742 -0.359008,3.042649 -1.04175,3.529044 -0.900886,0.641796 z m 68.335258,0 c 0.074,-1.516679 0.29064,-2.381882 0.62885,-2.511538 0.41677,-0.159691 0.46908,0.199775 0.27202,1.869742 -0.35899,3.042649 -1.04175,3.529044 -0.90087,0.641796 z m 10.48274,1.140114 c -0.14658,-0.645505 -0.35703,-1.70179 -0.46765,-2.347314 -0.11068,-0.645507 -0.28711,-1.509742 -0.39217,-1.92052 -0.12413,-0.485267 0.008,-0.74687 0.37785,-0.74687 0.72646,0 1.02898,1.41604 0.87226,4.082722 -0.10553,1.796169 -0.16294,1.93315 -0.39029,0.931982 z m -86.539683,-2.66739 c 0.01765,-2.97098 0.01957,-2.97653 0.346267,-1.004246 0.199907,1.206958 0.192931,2.376316 -0.01776,2.987482 -0.264415,0.766822 -0.342058,0.297945 -0.328477,-1.983236 z m 68.335253,0 c 0.0177,-2.97098 0.0196,-2.97653 0.34628,-1.004246 0.19989,1.206958 0.19292,2.376316 -0.0178,2.987482 -0.26441,0.766822 -0.34206,0.297945 -0.32847,-1.983236 z m -63.336786,1.686112 c -0.118308,-0.223163 -0.333868,-1.326887 -0.478911,-2.45271 -0.292755,-2.27226 -0.524651,-2.261225 -1.147021,0.05469 -0.231395,0.861024 -0.438054,1.19994 -0.459249,0.753128 -0.02126,-0.446812 -0.468936,-1.869289 -0.994992,-3.161061 -0.526064,-1.291773 -0.972158,-2.990757 -0.991311,-3.775535 -0.03509,-1.438074 -0.405279,-1.880193 -0.748048,-0.893399 -0.101875,0.293412 -0.198355,-2.971481 -0.214316,-7.255333 l -0.02904,-7.788801 h 6.245709 6.245698 v 3.62767 3.627652 h -2.204359 -2.204363 v 2.347314 2.347315 h 1.653264 1.653274 v 3.627665 3.627668 h -1.797148 c -1.652816,0 -1.817927,-0.0942 -2.05601,-1.173666 -0.224239,-1.016651 -0.378619,-0.688382 -1.154073,2.454018 -0.492354,1.995204 -0.942159,3.810263 -0.999575,4.033428 -0.06594,0.256488 -0.183529,0.256488 -0.319554,0 z m 68.335266,0 c -0.11832,-0.223163 -0.33388,-1.326887 -0.47894,-2.45271 -0.29274,-2.27226 -0.52463,-2.261225 -1.14701,0.05469 -0.23138,0.861024 -0.43805,1.19994 -0.45924,0.753128 -0.0213,-0.446812 -0.46893,-1.869289 -0.995,-3.161061 -0.52606,-1.291773 -0.97215,-2.990757 -0.9913,-3.775535 -0.0351,-1.438074 -0.40528,-1.880193 -0.74806,-0.893399 -0.10186,0.293412 -0.19836,-2.971481 -0.21431,-7.255333 l -0.0291,-7.788801 h 6.24569 6.24569 v 3.627667 3.627652 h -2.20437 -2.20435 v 2.347315 2.347315 h 1.65327 1.65327 v 3.627665 3.627667 h -1.79713 c -1.65284,0 -1.81793,-0.0942 -2.05601,-1.173665 -0.22424,-1.016652 -0.37863,-0.688382 -1.15408,2.454018 -0.49236,1.995204 -0.94218,3.810263 -0.99958,4.033428 -0.0659,0.256489 -0.18352,0.256489 -0.31954,0 z m 15.43823,-1.686112 c -0.5402,-2.048143 -0.53403,-2.139603 0.15401,-2.275115 1.02509,-0.201887 1.09081,0.0081 0.73105,2.329362 l -0.32225,2.079662 z m 2.15485,-0.07114 c -0.4431,-0.514738 -0.25542,-2.27618 0.24255,-2.27618 0.33263,0 0.43608,0.406649 0.32569,1.280353 -0.17452,1.381328 -0.19917,1.424525 -0.56824,0.995827 z"
       id="path46512"
       sodipodi:nodetypes="cccccccccscssccssccccccccccccsscscsssssscscccssccscscccssssccsccssssscscsssccccccccccssssssssssscssccsccsscsccccsscccccsscsssccsssscccssssscsscsssccccccccsccscsscsssscsscscssscsscssssscssssscccssssccscscsccsscccscccsscssccssssccssscsscccscscccsccsscssscsssssccsscsscccsscscsscccccccccccccssscccssscscsscccccccccccccssssssssccsssss" />
  </g>
</svg>
